# xmcd CD database file
#
# Track frame offsets:
#	150
#	16257
#	33132
#	47795
#	60807
#	75732
#	89307
#	107007
#	124407
#	144447
#	162409
#	177784
#
# Disc length: 2608 seconds
#
# Revision: 0
# Processed by: cddbd v1.5.2PL0 Copyright (c) Steve Scherf et al.
# Submitted via: CDex 1.51
#
DISCID=8e0a2e0c
DTITLE=VARIOS - SON CUBANO
DYEAR=2000
DGENRE=SON CUBANO
TTITLE0=SON DE LA LOMA - GUARACHEROS DE ORIENTE
TTITLE1=SON DE ESTE TIEMPO - ALBITA RODRÍGUEZ
TTITLE2=EL QUE SIEMBRA SU MAÍZ - GUARACHEROS DE ORIENTE
TTITLE3=AY, COMO TE EXTRAÑO - ALBITA RODRÍGUEZ
TTITLE4=CUIDADITO COMPAY GALLO - GUARACHEROS DE ORIENTE
TTITLE5=COMO SE BAILA EL SON - ALBITA RODRÍGUEZ
TTITLE6=AL VAIVEN DE MI CARRETA - GUARACHEROS DE ORIENTE
TTITLE7=EL MANGO MAMEY - ALBITA RODRÍGUEZ
TTITLE8=GUANTANAMERA - GUARACHEROS DE ORIENTE
TTITLE9=PARA UNA MAÑANA FELIZ - ALBITA RODRÍGUEZ
TTITLE10=EL CARRETERO - GUARACHEROS DE ORIENTE
TTITLE11=A ROMPER EL COCO - ALBITA RODRÍGUEZ
EXTD=YEAR: 2000
EXTT0=
EXTT1=
EXTT2=
EXTT3=
EXTT4=
EXTT5=
EXTT6=
EXTT7=
EXTT8=
EXTT9=
EXTT10=
EXTT11=
PLAYORDER=
